# xmcd
#
# Track frame offsets:
#	150
#	16357
#	38795
#	54485
#	91675
#
# Disc length: 1577 seconds
#
# Revision: 1
# Processed by: cddbd v1.5PL3 Copyright (c) Steve Scherf et al.
# Submitted via: EasyCDDAExtractor 6.5.0.1
#
DISCID=30062705
DTITLE=Sybil - Beyond Your Wildest Dreams
DYEAR=1900
DGENRE=
TTITLE0=Beyond Your Wildest Dreams(Johnny's Jumpin' Vibe Radio)
TTITLE1=Beyond Your Wildest Dreams(Johnny's Jumpin' Vibe Extended Mix)
TTITLE2=Beyond Your Wildest Dreams(Dreamapella)
TTITLE3=Beyond Your Wildest Dreams(Jewels And Stone Seducer Mix)
TTITLE4=Beyond Your Wildest Dreams(Safe In The Hands Of Dub Remix)
EXTD=
EXTT0=
EXTT1=
EXTT2=
EXTT3=
EXTT4=
PLAYORDER=
